<svg width="1199" height="52" viewBox="0 0 1199 52" fill="none" xmlns="http://www.w3.org/2000/svg">
<path d="M81.9222 40.6737H75.136L63.7861 23.0111V40.6737H57V12.0383H63.7861L75.136 29.7824V12.0383H81.9222V40.6737Z" fill="#292929"/>
<path d="M96.9212 41C94.7518 41 92.794 40.5241 91.0478 39.5723C89.3281 38.6205 87.9656 37.2608 86.9603 35.4932C85.9814 33.7256 85.4919 31.6588 85.4919 29.293C85.4919 26.9543 85.9946 24.9011 87 23.1335C88.0053 21.3387 89.3811 19.9654 91.1272 19.0136C92.8733 18.0618 94.8311 17.5859 97.0006 17.5859C99.17 17.5859 101.128 18.0618 102.874 19.0136C104.62 19.9654 105.996 21.3387 107.001 23.1335C108.007 24.9011 108.509 26.9543 108.509 29.293C108.509 31.6316 107.993 33.6984 106.961 35.4932C105.956 37.2608 104.567 38.6205 102.795 39.5723C101.048 40.5241 99.0906 41 96.9212 41ZM96.9212 34.9629C98.2176 34.9629 99.3155 34.4734 100.215 33.4944C101.141 32.5155 101.604 31.115 101.604 29.293C101.604 27.471 101.154 26.0705 100.255 25.0915C99.3817 24.1125 98.2969 23.623 97.0006 23.623C95.6777 23.623 94.5798 24.1125 93.7067 25.0915C92.8337 26.0433 92.3971 27.4438 92.3971 29.293C92.3971 31.115 92.8204 32.5155 93.667 33.4944C94.5401 34.4734 95.6248 34.9629 96.9212 34.9629Z" fill="#292929"/>
<path d="M115.522 15.5464C114.332 15.5464 113.353 15.1928 112.586 14.4858C111.845 13.7515 111.474 12.8541 111.474 11.7936C111.474 10.7058 111.845 9.80841 112.586 9.10136C113.353 8.36712 114.332 8 115.522 8C116.686 8 117.639 8.36712 118.38 9.10136C119.147 9.80841 119.53 10.7058 119.53 11.7936C119.53 12.8541 119.147 13.7515 118.38 14.4858C117.639 15.1928 116.686 15.5464 115.522 15.5464ZM118.896 17.9122V40.6737H112.109V17.9122H118.896Z" fill="#292929"/>
<path d="M132.822 41C130.89 41 129.171 40.6601 127.663 39.9802C126.155 39.3004 124.964 38.3758 124.091 37.2064C123.218 36.0099 122.729 34.6774 122.623 33.2089H129.33C129.409 33.9975 129.766 34.6366 130.401 35.1261C131.036 35.6156 131.816 35.8603 132.742 35.8603C133.589 35.8603 134.237 35.6972 134.687 35.3708C135.163 35.0173 135.401 34.5686 135.401 34.0247C135.401 33.3721 135.071 32.8962 134.409 32.597C133.748 32.2707 132.676 31.9172 131.195 31.5365C129.607 31.1558 128.285 30.7614 127.226 30.3535C126.168 29.9184 125.255 29.2522 124.488 28.3548C123.721 27.4302 123.337 26.1928 123.337 24.6428C123.337 23.3375 123.681 22.1545 124.369 21.0939C125.083 20.0062 126.115 19.1496 127.464 18.5241C128.84 17.8986 130.467 17.5859 132.346 17.5859C135.124 17.5859 137.306 18.293 138.894 19.707C140.507 21.1211 141.433 22.9975 141.672 25.3362H135.401C135.296 24.5476 134.952 23.9221 134.37 23.4598C133.814 22.9975 133.073 22.7664 132.147 22.7664C131.353 22.7664 130.745 22.9295 130.322 23.2559C129.898 23.555 129.687 23.9765 129.687 24.5204C129.687 25.1731 130.017 25.6625 130.679 25.9889C131.367 26.3152 132.425 26.6415 133.854 26.9679C135.494 27.403 136.83 27.8381 137.862 28.2732C138.894 28.6811 139.793 29.3609 140.56 30.3127C141.354 31.2373 141.764 32.4883 141.791 34.0655C141.791 35.398 141.42 36.5946 140.679 37.6551C139.965 38.6885 138.92 39.5043 137.544 40.1026C136.195 40.7009 134.621 41 132.822 41Z" fill="#292929"/>
<path d="M167.174 21.2571C167.174 22.9159 166.803 24.4388 166.063 25.8257C165.322 27.1854 164.184 28.2868 162.65 29.1298C161.115 29.9728 159.21 30.3943 156.935 30.3943H152.728V40.6737H145.942V12.0383H156.935C159.157 12.0383 161.036 12.4326 162.57 13.2213C164.105 14.0099 165.256 15.0977 166.023 16.4845C166.79 17.8714 167.174 19.4623 167.174 21.2571ZM156.419 24.8467C157.716 24.8467 158.681 24.534 159.316 23.9085C159.951 23.2831 160.269 22.3993 160.269 21.2571C160.269 20.115 159.951 19.2312 159.316 18.6057C158.681 17.9802 157.716 17.6675 156.419 17.6675H152.728V24.8467H156.419Z" fill="#292929"/>
<path d="M180.787 41C178.617 41 176.659 40.5241 174.913 39.5723C173.194 38.6205 171.831 37.2608 170.826 35.4932C169.847 33.7256 169.357 31.6588 169.357 29.293C169.357 26.9543 169.86 24.9011 170.865 23.1335C171.871 21.3387 173.247 19.9654 174.993 19.0136C176.739 18.0618 178.697 17.5859 180.866 17.5859C183.035 17.5859 184.993 18.0618 186.739 19.0136C188.486 19.9654 189.861 21.3387 190.867 23.1335C191.872 24.9011 192.375 26.9543 192.375 29.293C192.375 31.6316 191.859 33.6984 190.827 35.4932C189.822 37.2608 188.433 38.6205 186.66 39.5723C184.914 40.5241 182.956 41 180.787 41ZM180.787 34.9629C182.083 34.9629 183.181 34.4734 184.081 33.4944C185.007 32.5155 185.47 31.115 185.47 29.293C185.47 27.471 185.02 26.0705 184.12 25.0915C183.247 24.1125 182.162 23.623 180.866 23.623C179.543 23.623 178.445 24.1125 177.572 25.0915C176.699 26.0433 176.263 27.4438 176.263 29.293C176.263 31.115 176.686 32.5155 177.533 33.4944C178.406 34.4734 179.49 34.9629 180.787 34.9629Z" fill="#292929"/>
<path d="M194.626 29.2522C194.626 26.9135 195.049 24.8603 195.895 23.0927C196.769 21.3251 197.946 19.9654 199.427 19.0136C200.909 18.0618 202.563 17.5859 204.388 17.5859C205.843 17.5859 207.166 17.8986 208.357 18.5241C209.574 19.1496 210.526 19.9926 211.214 21.0532V10.4883H218V40.6737H211.214V37.4104C210.579 38.4981 209.666 39.3684 208.476 40.021C207.312 40.6737 205.949 41 204.388 41C202.563 41 200.909 40.5241 199.427 39.5723C197.946 38.5933 196.769 37.22 195.895 35.4524C195.049 33.6576 194.626 31.5909 194.626 29.2522ZM211.214 29.293C211.214 27.5525 210.738 26.1792 209.785 25.1731C208.859 24.1669 207.722 23.6638 206.372 23.6638C205.023 23.6638 203.872 24.1669 202.92 25.1731C201.994 26.152 201.531 27.5117 201.531 29.2522C201.531 30.9926 201.994 32.3795 202.92 33.4129C203.872 34.419 205.023 34.9221 206.372 34.9221C207.722 34.9221 208.859 34.419 209.785 33.4129C210.738 32.4067 211.214 31.0334 211.214 29.293Z" fill="#292929"/>
<path d="M38 26C38 36.4934 29.4934 45 19 45C8.50659 45 0 36.4934 0 26C0 15.5066 8.50659 7 19 7C29.4934 7 38 15.5066 38 26Z" fill="#292929"/>
<path fill-rule="evenodd" clip-rule="evenodd" d="M9 20C9.55228 20 10 20.3755 10 20.8387V32.1613C10 32.6245 9.55228 33 9 33C8.44772 33 8 32.6245 8 32.1613V20.8387C8 20.3755 8.44772 20 9 20Z" fill="white"/>
<path fill-rule="evenodd" clip-rule="evenodd" d="M14 16C14.5523 16 15 16.3731 15 16.8333L15 35.1667C15 35.6269 14.5523 36 14 36C13.4477 36 13 35.6269 13 35.1667L13 16.8333C13 16.3731 13.4477 16 14 16Z" fill="white"/>
<path fill-rule="evenodd" clip-rule="evenodd" d="M19 20C19.5523 20 20 20.3755 20 20.8387V32.1613C20 32.6245 19.5523 33 19 33C18.4477 33 18 32.6245 18 32.1613V20.8387C18 20.3755 18.4477 20 19 20Z" fill="white"/>
<path fill-rule="evenodd" clip-rule="evenodd" d="M29 20C29.5523 20 30 20.3755 30 20.8387V32.1613C30 32.6245 29.5523 33 29 33C28.4477 33 28 32.6245 28 32.1613V20.8387C28 20.3755 28.4477 20 29 20Z" fill="white"/>
<path fill-rule="evenodd" clip-rule="evenodd" d="M24 16C24.5523 16 25 16.3731 25 16.8333L25 35.1667C25 35.6269 24.5523 36 24 36C23.4477 36 23 35.6269 23 35.1667L23 16.8333C23 16.3731 23.4477 16 24 16Z" fill="white"/>
<path d="M371.598 0L397.195 25.5978L371.598 51.1957L346 25.5978L371.598 0Z" fill="#292929"/>
<path fill-rule="evenodd" clip-rule="evenodd" d="M361.037 19.5979C361.589 19.5979 362.037 19.9734 362.037 20.4366V31.7592C362.037 32.2224 361.589 32.5979 361.037 32.5979C360.485 32.5979 360.037 32.2224 360.037 31.7592V20.4366C360.037 19.9734 360.485 19.5979 361.037 19.5979Z" fill="white"/>
<path fill-rule="evenodd" clip-rule="evenodd" d="M366.037 16.5979C366.589 16.5979 367.037 16.9523 367.037 17.3896L367.037 34.8062C367.037 35.2435 366.589 35.5979 366.037 35.5979C365.485 35.5979 365.037 35.2435 365.037 34.8062L365.037 17.3896C365.037 16.9523 365.485 16.5979 366.037 16.5979Z" fill="white"/>
<path fill-rule="evenodd" clip-rule="evenodd" d="M371.037 19.5979C371.589 19.5979 372.037 19.9734 372.037 20.4366V31.7592C372.037 32.2224 371.589 32.5979 371.037 32.5979C370.485 32.5979 370.037 32.2224 370.037 31.7592V20.4366C370.037 19.9734 370.485 19.5979 371.037 19.5979Z" fill="white"/>
<path fill-rule="evenodd" clip-rule="evenodd" d="M381.037 19.5979C381.589 19.5979 382.037 19.9734 382.037 20.4366V31.7592C382.037 32.2224 381.589 32.5979 381.037 32.5979C380.485 32.5979 380.037 32.2224 380.037 31.7592V20.4366C380.037 19.9734 380.485 19.5979 381.037 19.5979Z" fill="white"/>
<path fill-rule="evenodd" clip-rule="evenodd" d="M376.037 16.5979C376.589 16.5979 377.037 16.9523 377.037 17.3896L377.037 34.8062C377.037 35.2435 376.589 35.5979 376.037 35.5979C375.485 35.5979 375.037 35.2435 375.037 34.8062L375.037 17.3896C375.037 16.9523 375.485 16.5979 376.037 16.5979Z" fill="white"/>
<path d="M423.06 25.4837H425.041C426.894 25.4837 428.279 25.1284 429.199 24.4177C430.119 23.6943 430.578 22.6474 430.578 21.2768C430.578 19.8936 430.19 18.872 429.413 18.2121C428.649 17.5522 427.444 17.2223 425.799 17.2223H423.06V25.4837ZM436.659 21.0674C436.659 24.0624 435.701 26.353 433.784 27.9393C431.88 29.5256 429.167 30.3187 425.644 30.3187H423.06V40.2172H417.037V12.3872H426.11C429.555 12.3872 432.171 13.1169 433.959 14.5763C435.759 16.023 436.659 18.1867 436.659 21.0674Z" fill="#292929"/>
<path d="M446.276 29.5383C446.276 31.6449 446.626 33.2375 447.325 34.3162C448.038 35.3949 449.19 35.9342 450.783 35.9342C452.363 35.9342 453.497 35.4012 454.183 34.3352C454.883 33.2565 455.232 31.6575 455.232 29.5383C455.232 27.4317 454.883 25.8517 454.183 24.7984C453.484 23.7451 452.338 23.2185 450.744 23.2185C449.164 23.2185 448.025 23.7451 447.325 24.7984C446.626 25.839 446.276 27.419 446.276 29.5383ZM461.294 29.5383C461.294 33.0027 460.361 35.7121 458.496 37.6664C456.631 39.6207 454.034 40.5979 450.706 40.5979C448.62 40.5979 446.781 40.1537 445.188 39.2654C443.595 38.3644 442.371 37.0763 441.516 35.4012C440.661 33.7261 440.234 31.7718 440.234 29.5383C440.234 26.0611 441.16 23.3581 443.012 21.4291C444.864 19.5002 447.468 18.5357 450.822 18.5357C452.907 18.5357 454.747 18.9799 456.34 19.8682C457.933 20.7565 459.157 22.0319 460.012 23.6943C460.866 25.3568 461.294 27.3048 461.294 29.5383Z" fill="#292929"/>
<path d="M473.067 40.5979C470.516 40.5979 468.508 39.6271 467.044 37.6855C465.594 35.7438 464.869 33.0535 464.869 29.6144C464.869 26.1245 465.607 23.4088 467.083 21.4672C468.573 19.5129 470.619 18.5357 473.223 18.5357C475.955 18.5357 478.041 19.5763 479.478 21.6575H479.673C479.375 20.0713 479.226 18.6563 479.226 17.4126V10.5979H485.171V40.2172H480.625L479.478 37.457H479.226C477.879 39.5509 475.826 40.5979 473.067 40.5979ZM475.146 35.9723C476.661 35.9723 477.769 35.5408 478.468 34.6778C479.18 33.8149 479.569 32.3492 479.634 30.2806V29.6525C479.634 27.3682 479.271 25.7311 478.546 24.7413C477.833 23.7515 476.668 23.2565 475.049 23.2565C473.728 23.2565 472.698 23.8086 471.96 24.9126C471.234 26.004 470.872 27.5966 470.872 29.6905C470.872 31.7844 471.241 33.3581 471.979 34.4114C472.717 35.452 473.773 35.9723 475.146 35.9723Z" fill="#292929"/>
<path d="M497.76 40.2172H491.834V12.3872H508.115V17.2223H497.76V24.3987H507.396V29.2147H497.76V40.2172Z" fill="#292929"/>
<path d="M525.697 40.2172L518.859 18.3834H518.684C518.93 22.8251 519.053 25.7883 519.053 27.273V40.2172H513.671V12.3872H521.87L528.592 33.669H528.709L535.839 12.3872H544.037V40.2172H538.422V27.0446C538.422 26.4228 538.429 25.7058 538.442 24.8936C538.468 24.0814 538.558 21.924 538.714 18.4215H538.539L531.215 40.2172H525.697Z" fill="#292929"/>
<path d="M740.499 30.8994C740.499 33.4131 739.574 35.3936 737.723 36.8408C735.886 38.2881 733.323 39.0117 730.036 39.0117C727.008 39.0117 724.329 38.4531 722 37.3359V31.8516C723.915 32.6895 725.533 33.2798 726.853 33.6226C728.186 33.9653 729.402 34.1367 730.502 34.1367C731.822 34.1367 732.832 33.8892 733.53 33.394C734.242 32.8989 734.598 32.1626 734.598 31.1851C734.598 30.6392 734.443 30.1567 734.132 29.7378C733.822 29.3062 733.362 28.8936 732.754 28.5C732.159 28.1064 730.936 27.478 729.085 26.6147C727.351 25.8149 726.051 25.0469 725.183 24.3105C724.316 23.5742 723.624 22.7173 723.106 21.7397C722.589 20.7622 722.33 19.6196 722.33 18.312C722.33 15.8491 723.178 13.9131 724.873 12.5039C726.581 11.0947 728.936 10.3901 731.939 10.3901C733.414 10.3901 734.818 10.5615 736.151 10.9043C737.497 11.2471 738.901 11.7295 740.363 12.3516L738.422 16.9409C736.908 16.3315 735.653 15.9062 734.656 15.665C733.673 15.4238 732.702 15.3032 731.745 15.3032C730.606 15.3032 729.732 15.5635 729.124 16.084C728.516 16.6045 728.212 17.2837 728.212 18.1216C728.212 18.6421 728.335 19.0991 728.58 19.4927C728.826 19.8735 729.215 20.248 729.745 20.6162C730.289 20.9717 731.563 21.6191 733.569 22.5586C736.222 23.8027 738.04 25.0532 739.024 26.3101C740.007 27.5542 740.499 29.084 740.499 30.8994Z" fill="#292929"/>
<path d="M757.096 39.0117C754.546 39.0117 752.547 38.104 751.098 36.2886H750.787C750.994 38.0659 751.098 39.0942 751.098 39.3735V48H745.177V17.3408H749.991L750.826 20.1021H751.098C752.482 17.9946 754.534 16.9409 757.251 16.9409C759.813 16.9409 761.819 17.9121 763.269 19.8545C764.718 21.7969 765.443 24.4946 765.443 27.9478C765.443 30.2202 765.1 32.1943 764.414 33.8701C763.741 35.5459 762.777 36.8218 761.522 37.6978C760.266 38.5737 758.791 39.0117 757.096 39.0117ZM755.349 21.5874C753.886 21.5874 752.819 22.0317 752.146 22.9204C751.473 23.7964 751.124 25.25 751.098 27.2812V27.9097C751.098 30.1948 751.441 31.8325 752.126 32.8228C752.825 33.813 753.925 34.3081 755.426 34.3081C758.079 34.3081 759.406 32.1626 759.406 27.8716C759.406 25.7769 759.076 24.209 758.416 23.168C757.769 22.1143 756.746 21.5874 755.349 21.5874Z" fill="#292929"/>
<path d="M775.051 27.9478C775.051 30.0552 775.401 31.6484 776.1 32.7275C776.811 33.8066 777.963 34.3462 779.555 34.3462C781.134 34.3462 782.266 33.813 782.952 32.7466C783.651 31.6675 784 30.0679 784 27.9478C784 25.8403 783.651 24.2598 782.952 23.2061C782.253 22.1523 781.108 21.6255 779.516 21.6255C777.937 21.6255 776.798 22.1523 776.1 23.2061C775.401 24.2471 775.051 25.8276 775.051 27.9478ZM790.056 27.9478C790.056 31.4136 789.125 34.124 787.261 36.0791C785.398 38.0342 782.803 39.0117 779.477 39.0117C777.394 39.0117 775.556 38.5674 773.964 37.6787C772.373 36.7773 771.15 35.4888 770.296 33.813C769.441 32.1372 769.014 30.1821 769.014 27.9478C769.014 24.4692 769.94 21.7651 771.79 19.8354C773.641 17.9058 776.242 16.9409 779.594 16.9409C781.677 16.9409 783.515 17.3853 785.106 18.2739C786.698 19.1626 787.921 20.4385 788.775 22.1016C789.629 23.7646 790.056 25.7134 790.056 27.9478Z" fill="#292929"/>
<path d="M804.091 34.3843C805.126 34.3843 806.368 34.1621 807.818 33.7178V38.0405C806.343 38.688 804.531 39.0117 802.383 39.0117C800.014 39.0117 798.287 38.4277 797.2 37.2598C796.126 36.0791 795.589 34.3145 795.589 31.9658V21.7017H792.755V19.2451L796.016 17.3027L797.724 12.8086H801.509V17.3408H807.585V21.7017H801.509V31.9658C801.509 32.791 801.742 33.4004 802.208 33.7939C802.687 34.1875 803.314 34.3843 804.091 34.3843Z" fill="#292929"/>
<path d="M811.972 11.8374C811.972 9.9458 813.046 9 815.194 9C817.342 9 818.416 9.9458 818.416 11.8374C818.416 12.7388 818.145 13.4434 817.601 13.9512C817.071 14.4463 816.268 14.6938 815.194 14.6938C813.046 14.6938 811.972 13.7417 811.972 11.8374ZM818.145 38.6309H812.224V17.3408H818.145V38.6309Z" fill="#292929"/>
<path d="M830.762 38.6309H824.842V10.79H841.108V15.627H830.762V22.8062H840.39V27.624H830.762V38.6309Z" fill="#292929"/>
<path d="M858.676 38.6309L851.843 16.7886H851.668C851.914 21.2319 852.037 24.1963 852.037 25.6816V38.6309H846.66V10.79H854.852L861.568 32.0801H861.684L868.808 10.79H877V38.6309H871.39V25.4531C871.39 24.8311 871.397 24.1138 871.41 23.3013C871.435 22.4888 871.526 20.3306 871.681 16.8267H871.507L864.188 38.6309H858.676Z" fill="#292929"/>
<path d="M712 24C712 35.0457 703.046 44 692 44C680.954 44 672 35.0457 672 24C672 12.9543 680.954 4 692 4C703.046 4 712 12.9543 712 24Z" fill="#292929"/>
<path fill-rule="evenodd" clip-rule="evenodd" d="M694.461 15.0009C694.81 14.9844 695.132 15.1915 695.268 15.5196L699.268 25.1988C699.271 25.207 699.275 25.2152 699.278 25.2235L701 29.7857L702.722 25.2235C702.846 24.8956 703.155 24.6792 703.5 24.6792H709V26.3773H704.072L701.778 32.4557C701.654 32.7836 701.345 33 701 33C700.655 33 700.346 32.7836 700.222 32.4557L697.727 25.8455L694.612 18.3077L692.295 25.784C692.185 26.1372 691.864 26.3773 691.5 26.3773H688.533L685.757 32.5067C685.607 32.8379 685.266 33.0345 684.91 32.995C684.554 32.9555 684.262 32.6887 684.186 32.3324L681.516 19.8949L680.315 25.7032C680.234 26.0961 679.894 26.3773 679.5 26.3773H675V24.6792H678.824L680.685 15.6741C680.765 15.2825 681.104 15.0016 681.497 15C681.89 14.9984 682.23 15.2766 682.314 15.6676L685.284 29.4987L687.243 25.1725C687.38 24.8718 687.675 24.6792 688 24.6792H690.889L693.705 15.5934C693.811 15.2539 694.112 15.0174 694.461 15.0009Z" fill="white"/>
<path d="M1048.46 26.8514C1048.46 38.8529 1038.73 48.582 1026.73 48.582C1014.73 48.582 1005 38.8529 1005 26.8514C1005 14.85 1014.73 5.12085 1026.73 5.12085C1038.73 5.12085 1048.46 14.85 1048.46 26.8514Z" fill="#292929"/>
<path d="M1066.91 42.0629V5.55551H1082.55C1083.56 5.55551 1084.43 5.92059 1085.16 6.65074C1085.92 7.38088 1086.31 8.26749 1086.31 9.31056V20.5235C1086.31 21.5666 1085.92 22.4532 1085.16 23.1834C1084.43 23.9135 1083.56 24.2786 1082.55 24.2786H1071.76V42.0629H1066.91ZM1071.76 19.4283H1079.58C1080.1 19.4283 1080.54 19.2545 1080.88 18.9068C1081.27 18.5243 1081.46 18.0723 1081.46 17.5508V12.2312C1081.46 11.7444 1081.27 11.3272 1080.88 10.9795C1080.54 10.597 1080.1 10.4058 1079.58 10.4058H1071.76V19.4283Z" fill="#292929"/>
<path d="M1092.19 42.0629C1091.11 42.0629 1090.21 41.6978 1089.48 40.9677C1088.75 40.2028 1088.38 39.2988 1088.38 38.2557V19.7934C1088.38 18.7503 1088.75 17.8637 1089.48 17.1336C1090.21 16.3687 1091.11 15.9862 1092.19 15.9862H1099.28C1100.33 15.9862 1101.21 16.3687 1101.94 17.1336C1102.67 17.8637 1103.04 18.7503 1103.04 19.7934V38.2557C1103.04 39.2988 1102.67 40.2028 1101.94 40.9677C1101.21 41.6978 1100.33 42.0629 1099.28 42.0629H1092.19ZM1095.16 37.1605H1096.26C1096.78 37.1605 1097.23 36.9866 1097.61 36.6389C1098 36.2565 1098.19 35.8045 1098.19 35.283V22.7661C1098.19 22.2446 1098 21.81 1097.61 21.4623C1097.23 21.0798 1096.78 20.8886 1096.26 20.8886H1095.16C1094.64 20.8886 1094.19 21.0798 1093.81 21.4623C1093.46 21.81 1093.28 22.2446 1093.28 22.7661V35.283C1093.28 35.8045 1093.46 36.2565 1093.81 36.6389C1094.19 36.9866 1094.64 37.1605 1095.16 37.1605Z" fill="#292929"/>
<path d="M1110.57 42.0629C1109.52 42.0629 1108.62 41.6978 1107.85 40.9677C1107.12 40.2028 1106.76 39.2988 1106.76 38.2557V15.9862H1111.66V35.283C1111.66 35.8045 1111.83 36.2565 1112.18 36.6389C1112.56 36.9866 1113.02 37.1605 1113.54 37.1605H1116.56V15.9862H1121.47V35.283C1121.47 35.8045 1121.64 36.2565 1121.99 36.6389C1122.37 36.9866 1122.82 37.1605 1123.34 37.1605H1126.32V15.9862H1131.22V42.0629H1110.57Z" fill="#292929"/>
<path d="M1138.68 42.0629C1137.6 42.0629 1136.7 41.6978 1135.97 40.9677C1135.24 40.2028 1134.87 39.2988 1134.87 38.2557V19.7934C1134.87 18.7503 1135.24 17.8637 1135.97 17.1336C1136.7 16.3687 1137.6 15.9862 1138.68 15.9862H1145.77C1146.82 15.9862 1147.7 16.3687 1148.43 17.1336C1149.2 17.8637 1149.58 18.7503 1149.58 19.7934V25.4781H1144.68V22.7661C1144.68 22.2446 1144.49 21.81 1144.1 21.4623C1143.72 21.0798 1143.27 20.8886 1142.75 20.8886H1141.65C1141.13 20.8886 1140.68 21.0798 1140.3 21.4623C1139.95 21.81 1139.77 22.2446 1139.77 22.7661V35.283C1139.77 35.8045 1139.95 36.2565 1140.3 36.6389C1140.68 36.9866 1141.13 37.1605 1141.65 37.1605H1142.75C1143.27 37.1605 1143.72 36.9866 1144.1 36.6389C1144.49 36.2565 1144.68 35.8045 1144.68 35.283V32.571H1149.58V38.2557C1149.58 39.2988 1149.2 40.2028 1148.43 40.9677C1147.7 41.6978 1146.82 42.0629 1145.77 42.0629H1138.68Z" fill="#292929"/>
<path d="M1156 42.0629C1154.95 42.0629 1154.05 41.6978 1153.28 40.9677C1152.55 40.2375 1152.19 39.3335 1152.19 38.2557V30.3805C1152.19 29.3375 1152.55 28.4509 1153.28 27.7207C1154.05 26.9558 1154.95 26.5733 1156 26.5733H1160.06C1160.62 26.5733 1161.07 26.3995 1161.42 26.0518C1161.8 25.6693 1161.99 25.2173 1161.99 24.6958V22.7661C1161.99 22.2446 1161.8 21.81 1161.42 21.4623C1161.07 21.0798 1160.62 20.8886 1160.06 20.8886H1154.43L1155.53 15.9862H1163.09C1164.13 15.9862 1165.02 16.3687 1165.75 17.1336C1166.51 17.8637 1166.9 18.7503 1166.9 19.7934V42.0629H1156ZM1158.97 37.1605H1161.99V31.4758H1158.97C1158.45 31.4758 1158 31.667 1157.61 32.0494C1157.27 32.3971 1157.09 32.8317 1157.09 33.3533V35.283C1157.09 35.8045 1157.27 36.2565 1157.61 36.6389C1158 36.9866 1158.45 37.1605 1158.97 37.1605Z" fill="#292929"/>
<path d="M1173.82 42.0629C1172.78 42.0629 1171.89 41.6978 1171.16 40.9677C1170.43 40.2028 1170.07 39.2988 1170.07 38.2557V33.927H1174.92V35.283C1174.92 35.8045 1175.11 36.2565 1175.49 36.6389C1175.87 36.9866 1176.32 37.1605 1176.85 37.1605H1177.94C1178.46 37.1605 1178.9 36.9866 1179.24 36.6389C1179.63 36.2565 1179.82 35.8045 1179.82 35.283V33.3533C1179.82 32.8317 1179.63 32.3971 1179.24 32.0494C1178.9 31.667 1178.46 31.4758 1177.94 31.4758H1173.82C1172.78 31.4758 1171.89 31.1107 1171.16 30.3805C1170.43 29.6156 1170.07 28.7116 1170.07 27.6686V19.7934C1170.07 18.7503 1170.43 17.8637 1171.16 17.1336C1171.89 16.3687 1172.78 15.9862 1173.82 15.9862H1180.97C1182.01 15.9862 1182.9 16.3687 1183.63 17.1336C1184.36 17.8637 1184.72 18.7503 1184.72 19.7934V24.1221H1179.82V22.7661C1179.82 22.2446 1179.63 21.81 1179.24 21.4623C1178.9 21.0798 1178.46 20.8886 1177.94 20.8886H1176.85C1176.32 20.8886 1175.87 21.0798 1175.49 21.4623C1175.11 21.81 1174.92 22.2446 1174.92 22.7661V24.6958C1174.92 25.2173 1175.11 25.6693 1175.49 26.0518C1175.87 26.3995 1176.32 26.5733 1176.85 26.5733H1180.97C1182.01 26.5733 1182.9 26.9558 1183.63 27.7207C1184.36 28.4509 1184.72 29.3375 1184.72 30.3805V38.4643C1184.69 39.4378 1184.3 40.2897 1183.57 41.0198C1182.84 41.7152 1181.97 42.0629 1180.97 42.0629H1173.82Z" fill="#292929"/>
<path d="M1187.89 42.0629V4.09522L1192.79 3V15.9862H1199L1197.85 20.8886H1192.79V42.0629H1187.89Z" fill="#292929"/>
</svg>
