<svg width="1199" height="43" viewBox="0 0 1199 43" fill="none" xmlns="http://www.w3.org/2000/svg">
<path d="M319.495 33.7437H313.904L304.553 19.1915V33.7437H298.962V10.151H304.553L313.904 24.7704V10.151H319.495V33.7437Z" fill="#292929"/>
<path d="M331.853 34.0126C330.066 34.0126 328.453 33.6205 327.014 32.8363C325.597 32.0521 324.475 30.9318 323.646 29.4755C322.84 28.0192 322.436 26.3164 322.436 24.3671C322.436 22.4403 322.851 20.7487 323.679 19.2923C324.507 17.8136 325.641 16.6821 327.079 15.898C328.518 15.1138 330.131 14.7217 331.918 14.7217C333.706 14.7217 335.319 15.1138 336.757 15.898C338.196 16.6821 339.33 17.8136 340.158 19.2923C340.986 20.7487 341.4 22.4403 341.4 24.3671C341.4 26.294 340.975 27.9968 340.125 29.4755C339.297 30.9318 338.153 32.0521 336.692 32.8363C335.253 33.6205 333.64 34.0126 331.853 34.0126ZM331.853 29.0386C332.921 29.0386 333.826 28.6353 334.567 27.8287C335.33 27.0221 335.711 25.8683 335.711 24.3671C335.711 22.866 335.341 21.7121 334.6 20.9055C333.88 20.0989 332.986 19.6956 331.918 19.6956C330.829 19.6956 329.924 20.0989 329.205 20.9055C328.485 21.6897 328.126 22.8436 328.126 24.3671C328.126 25.8683 328.474 27.0221 329.172 27.8287C329.891 28.6353 330.785 29.0386 331.853 29.0386Z" fill="#292929"/>
<path d="M347.178 13.0413C346.198 13.0413 345.391 12.75 344.759 12.1675C344.149 11.5626 343.843 10.8232 343.843 9.94938C343.843 9.05317 344.149 8.3138 344.759 7.73126C345.391 7.12632 346.198 6.82385 347.178 6.82385C348.138 6.82385 348.922 7.12632 349.533 7.73126C350.165 8.3138 350.481 9.05317 350.481 9.94938C350.481 10.8232 350.165 11.5626 349.533 12.1675C348.922 12.75 348.138 13.0413 347.178 13.0413ZM349.958 14.9905V33.7437H344.367V14.9905H349.958Z" fill="#292929"/>
<path d="M361.432 34.0126C359.84 34.0126 358.423 33.7325 357.181 33.1724C355.939 32.6122 354.958 31.8505 354.238 30.887C353.519 29.9012 353.116 28.8033 353.029 27.5935H358.554C358.62 28.2432 358.914 28.7697 359.437 29.173C359.96 29.5763 360.603 29.778 361.366 29.778C362.064 29.778 362.598 29.6435 362.968 29.3747C363.361 29.0834 363.557 28.7137 363.557 28.2656C363.557 27.7279 363.284 27.3358 362.739 27.0894C362.194 26.8205 361.312 26.5292 360.091 26.2155C358.783 25.9019 357.693 25.577 356.821 25.2409C355.949 24.8824 355.197 24.3335 354.565 23.5941C353.933 22.8324 353.617 21.8129 353.617 20.5358C353.617 19.4604 353.9 18.4858 354.467 17.612C355.056 16.7157 355.906 16.01 357.018 15.4947C358.151 14.9793 359.492 14.7217 361.039 14.7217C363.328 14.7217 365.126 15.3042 366.434 16.4693C367.764 17.6344 368.527 19.1803 368.723 21.1072H363.557C363.47 20.4574 363.186 19.9421 362.707 19.5612C362.249 19.1803 361.639 18.9899 360.876 18.9899C360.222 18.9899 359.72 19.1243 359.372 19.3932C359.023 19.6396 358.849 19.9869 358.849 20.435C358.849 20.9727 359.121 21.376 359.666 21.6449C360.233 21.9138 361.105 22.1826 362.282 22.4515C363.633 22.81 364.734 23.1684 365.584 23.5269C366.434 23.863 367.175 24.4231 367.807 25.2073C368.461 25.9691 368.799 26.9997 368.821 28.2992C368.821 29.3971 368.516 30.3829 367.905 31.2567C367.317 32.1081 366.456 32.7803 365.322 33.2732C364.211 33.7661 362.914 34.0126 361.432 34.0126Z" fill="#292929"/>
<path d="M389.734 17.7464C389.734 19.1131 389.429 20.3678 388.819 21.5105C388.208 22.6307 387.271 23.5381 386.007 24.2327C384.742 24.9273 383.173 25.2745 381.298 25.2745H377.833V33.7437H372.242V10.151H381.298C383.129 10.151 384.677 10.4759 385.941 11.1257C387.206 11.7754 388.154 12.6716 388.786 13.8143C389.418 14.9569 389.734 16.2676 389.734 17.7464ZM380.873 20.7039C381.941 20.7039 382.737 20.4462 383.26 19.9309C383.783 19.4156 384.045 18.6874 384.045 17.7464C384.045 16.8054 383.783 16.0772 383.26 15.5619C382.737 15.0466 381.941 14.7889 380.873 14.7889H377.833V20.7039H380.873Z" fill="#292929"/>
<path d="M400.95 34.0126C399.162 34.0126 397.549 33.6205 396.111 32.8363C394.694 32.0521 393.571 30.9318 392.743 29.4755C391.936 28.0192 391.533 26.3164 391.533 24.3671C391.533 22.4403 391.947 20.7487 392.776 19.2923C393.604 17.8136 394.737 16.6821 396.176 15.898C397.615 15.1138 399.228 14.7217 401.015 14.7217C402.803 14.7217 404.416 15.1138 405.854 15.898C407.293 16.6821 408.426 17.8136 409.255 19.2923C410.083 20.7487 410.497 22.4403 410.497 24.3671C410.497 26.294 410.072 27.9968 409.222 29.4755C408.394 30.9318 407.249 32.0521 405.789 32.8363C404.35 33.6205 402.737 34.0126 400.95 34.0126ZM400.95 29.0386C402.018 29.0386 402.922 28.6353 403.664 27.8287C404.427 27.0221 404.808 25.8683 404.808 24.3671C404.808 22.866 404.437 21.7121 403.696 20.9055C402.977 20.0989 402.083 19.6956 401.015 19.6956C399.925 19.6956 399.021 20.0989 398.301 20.9055C397.582 21.6897 397.222 22.8436 397.222 24.3671C397.222 25.8683 397.571 27.0221 398.269 27.8287C398.988 28.6353 399.882 29.0386 400.95 29.0386Z" fill="#292929"/>
<path d="M412.352 24.3335C412.352 22.4067 412.7 20.7151 413.398 19.2587C414.117 17.8024 415.087 16.6821 416.308 15.898C417.529 15.1138 418.891 14.7217 420.395 14.7217C421.594 14.7217 422.684 14.9793 423.665 15.4947C424.667 16.01 425.452 16.7045 426.019 17.5783V8.87393H431.61V33.7437H426.019V31.0551C425.496 31.9513 424.744 32.6682 423.763 33.206C422.804 33.7437 421.681 34.0126 420.395 34.0126C418.891 34.0126 417.529 33.6205 416.308 32.8363C415.087 32.0297 414.117 30.8982 413.398 29.4419C412.7 27.9632 412.352 26.2604 412.352 24.3335ZM426.019 24.3671C426.019 22.9332 425.626 21.8017 424.842 20.9727C424.079 20.1437 423.141 19.7292 422.03 19.7292C420.918 19.7292 419.97 20.1437 419.185 20.9727C418.422 21.7793 418.041 22.8996 418.041 24.3335C418.041 25.7674 418.422 26.9101 419.185 27.7615C419.97 28.5905 420.918 29.005 422.03 29.005C423.141 29.005 424.079 28.5905 424.842 27.7615C425.626 26.9325 426.019 25.8011 426.019 24.3671Z" fill="#292929"/>
<path d="M283.308 21.6541C283.308 30.2996 276.3 37.3082 267.654 37.3082C259.009 37.3082 252 30.2996 252 21.6541C252 13.0086 259.009 6 267.654 6C276.3 6 283.308 13.0086 283.308 21.6541Z" fill="#292929"/>
<path fill-rule="evenodd" clip-rule="evenodd" d="M259.415 16.7107C259.87 16.7107 260.239 17.0201 260.239 17.4017V26.7304C260.239 27.112 259.87 27.4214 259.415 27.4214C258.96 27.4214 258.591 27.112 258.591 26.7304V17.4017C258.591 17.0201 258.96 16.7107 259.415 16.7107Z" fill="white"/>
<path fill-rule="evenodd" clip-rule="evenodd" d="M263.535 13.4152C263.99 13.4152 264.359 13.7226 264.359 14.1017L264.359 29.2066C264.359 29.5858 263.99 29.8932 263.535 29.8932C263.08 29.8932 262.711 29.5858 262.711 29.2066L262.711 14.1017C262.711 13.7226 263.08 13.4152 263.535 13.4152Z" fill="white"/>
<path fill-rule="evenodd" clip-rule="evenodd" d="M267.654 16.7107C268.109 16.7107 268.478 17.0201 268.478 17.4017V26.7304C268.478 27.112 268.109 27.4214 267.654 27.4214C267.199 27.4214 266.83 27.112 266.83 26.7304V17.4017C266.83 17.0201 267.199 16.7107 267.654 16.7107Z" fill="white"/>
<path fill-rule="evenodd" clip-rule="evenodd" d="M275.893 16.7107C276.348 16.7107 276.717 17.0201 276.717 17.4017V26.7304C276.717 27.112 276.348 27.4214 275.893 27.4214C275.438 27.4214 275.069 27.112 275.069 26.7304V17.4017C275.069 17.0201 275.438 16.7107 275.893 16.7107Z" fill="white"/>
<path fill-rule="evenodd" clip-rule="evenodd" d="M271.773 13.4152C272.228 13.4152 272.597 13.7226 272.597 14.1017L272.597 29.2066C272.597 29.5858 272.228 29.8932 271.773 29.8932C271.318 29.8932 270.949 29.5858 270.949 29.2066L270.949 14.1017C270.949 13.7226 271.318 13.4152 271.773 13.4152Z" fill="white"/>
<path d="M544.09 0L565.18 21.0901L544.09 42.1801L523 21.0901L544.09 0Z" fill="#292929"/>
<path fill-rule="evenodd" clip-rule="evenodd" d="M535.389 16.1467C535.844 16.1467 536.213 16.4561 536.213 16.8377V26.1664C536.213 26.5481 535.844 26.8574 535.389 26.8574C534.934 26.8574 534.565 26.5481 534.565 26.1664V16.8377C534.565 16.4561 534.934 16.1467 535.389 16.1467Z" fill="white"/>
<path fill-rule="evenodd" clip-rule="evenodd" d="M539.508 13.675C539.963 13.675 540.332 13.9671 540.332 14.3273L540.332 28.6769C540.332 29.0371 539.963 29.3292 539.508 29.3292C539.053 29.3292 538.685 29.0371 538.685 28.6769L538.685 14.3273C538.685 13.9671 539.053 13.675 539.508 13.675Z" fill="white"/>
<path fill-rule="evenodd" clip-rule="evenodd" d="M543.629 16.1467C544.084 16.1467 544.452 16.4561 544.452 16.8377V26.1664C544.452 26.5481 544.084 26.8574 543.629 26.8574C543.174 26.8574 542.805 26.5481 542.805 26.1664V16.8377C542.805 16.4561 543.174 16.1467 543.629 16.1467Z" fill="white"/>
<path fill-rule="evenodd" clip-rule="evenodd" d="M551.867 16.1467C552.322 16.1467 552.691 16.4561 552.691 16.8377V26.1664C552.691 26.5481 552.322 26.8574 551.867 26.8574C551.412 26.8574 551.043 26.5481 551.043 26.1664V16.8377C551.043 16.4561 551.412 16.1467 551.867 16.1467Z" fill="white"/>
<path fill-rule="evenodd" clip-rule="evenodd" d="M547.748 13.675C548.203 13.675 548.572 13.9671 548.572 14.3273L548.572 28.6769C548.572 29.0371 548.203 29.3292 547.748 29.3292C547.293 29.3292 546.924 29.0371 546.924 28.6769L546.924 14.3273C546.924 13.9671 547.293 13.675 547.748 13.675Z" fill="white"/>
<path d="M586.489 20.9961H588.122C589.648 20.9961 590.79 20.7033 591.547 20.1178C592.305 19.5219 592.684 18.6593 592.684 17.5301C592.684 16.3904 592.364 15.5487 591.724 15.005C591.094 14.4614 590.102 14.1895 588.746 14.1895H586.489V20.9961ZM597.694 17.3575C597.694 19.8251 596.904 21.7123 595.325 23.0192C593.756 24.3262 591.521 24.9797 588.618 24.9797H586.489V33.135H581.527V10.2059H589.002C591.841 10.2059 593.997 10.8071 595.469 12.0095C596.952 13.2015 597.694 14.9841 597.694 17.3575Z" fill="#292929"/>
<path d="M605.617 24.3367C605.617 26.0723 605.905 27.3845 606.482 28.2732C607.069 29.1619 608.018 29.6063 609.331 29.6063C610.633 29.6063 611.566 29.1671 612.132 28.2889C612.708 27.4001 612.996 26.0827 612.996 24.3367C612.996 22.601 612.708 21.2993 612.132 20.4315C611.556 19.5637 610.611 19.1298 609.299 19.1298C607.997 19.1298 607.058 19.5637 606.482 20.4315C605.905 21.2888 605.617 22.5906 605.617 24.3367ZM617.99 24.3367C617.99 27.191 617.222 29.4233 615.685 31.0335C614.149 32.6436 612.009 33.4487 609.267 33.4487C607.549 33.4487 606.033 33.0827 604.721 32.3509C603.408 31.6085 602.4 30.5473 601.696 29.1671C600.991 27.787 600.639 26.1768 600.639 24.3367C600.639 21.4718 601.402 19.2448 602.928 17.6555C604.454 16.0663 606.599 15.2717 609.363 15.2717C611.081 15.2717 612.596 15.6376 613.909 16.3695C615.221 17.1014 616.23 18.1522 616.934 19.5219C617.638 20.8915 617.99 22.4965 617.99 24.3367Z" fill="#292929"/>
<path d="M627.69 33.4487C625.588 33.4487 623.934 32.6488 622.728 31.0491C621.533 29.4494 620.936 27.2328 620.936 24.3994C620.936 21.5241 621.544 19.2866 622.76 17.6869C623.988 16.0767 625.674 15.2717 627.819 15.2717C630.07 15.2717 631.788 16.129 632.973 17.8437H633.133C632.887 16.5368 632.765 15.371 632.765 14.3463V8.73169H637.663V33.135H633.917L632.973 30.8609H632.765C631.655 32.5861 629.963 33.4487 627.69 33.4487ZM629.403 29.6376C630.652 29.6376 631.564 29.2821 632.14 28.5712C632.727 27.8602 633.047 26.6526 633.101 24.9483V24.4308C633.101 22.5487 632.802 21.2 632.204 20.3844C631.617 19.5689 630.657 19.1611 629.323 19.1611C628.235 19.1611 627.386 19.616 626.778 20.5256C626.18 21.4248 625.882 22.7369 625.882 24.4621C625.882 26.1873 626.186 27.4838 626.794 28.3516C627.402 29.209 628.272 29.6376 629.403 29.6376Z" fill="#292929"/>
<path d="M648.035 33.135H643.153V10.2059H656.566V14.1895H648.035V20.1021H655.974V24.07H648.035V33.135Z" fill="#292929"/>
<path d="M671.052 33.135L665.418 15.1462H665.274C665.477 18.8056 665.578 21.247 665.578 22.4703V33.135H661.144V10.2059H667.899L673.437 27.7399H673.533L679.408 10.2059H686.163V33.135H681.537V22.2821C681.537 21.7698 681.542 21.1791 681.553 20.5099C681.574 19.8407 681.649 18.0633 681.777 15.1776H681.633L675.598 33.135H671.052Z" fill="#292929"/>
<path d="M834.437 25.1624C834.437 27.2335 833.674 28.8652 832.15 30.0576C830.636 31.25 828.525 31.8462 825.816 31.8462C823.322 31.8462 821.114 31.3859 819.195 30.4655V25.9469C820.773 26.6372 822.106 27.1236 823.194 27.406C824.292 27.6884 825.294 27.8297 826.2 27.8297C827.288 27.8297 828.119 27.6257 828.695 27.2178C829.282 26.8098 829.575 26.2032 829.575 25.3978C829.575 24.948 829.447 24.5505 829.191 24.2054C828.935 23.8497 828.557 23.5098 828.055 23.1856C827.565 22.8613 826.557 22.3436 825.033 21.6323C823.604 20.9733 822.533 20.3405 821.818 19.7339C821.104 19.1272 820.533 18.4212 820.107 17.6158C819.68 16.8104 819.467 15.869 819.467 14.7917C819.467 12.7625 820.166 11.1674 821.562 10.0064C822.97 8.84535 824.91 8.26484 827.384 8.26484C828.599 8.26484 829.756 8.40605 830.854 8.68846C831.963 8.97087 833.12 9.36834 834.325 9.88086L832.725 13.662C831.478 13.16 830.444 12.8096 829.623 12.6108C828.812 12.4121 828.013 12.3127 827.224 12.3127C826.286 12.3127 825.566 12.5272 825.065 12.956C824.564 13.3848 824.313 13.9444 824.313 14.6348C824.313 15.0636 824.414 15.4402 824.617 15.7644C824.82 16.0782 825.139 16.3868 825.577 16.6901C826.024 16.983 827.075 17.5164 828.727 18.2904C830.913 19.3155 832.411 20.3458 833.221 21.3813C834.032 22.4063 834.437 23.6667 834.437 25.1624Z" fill="#292929"/>
<path d="M848.111 31.8462C846.01 31.8462 844.363 31.0983 843.169 29.6026H842.913C843.084 31.0669 843.169 31.9142 843.169 32.1443V39.2516H838.291V13.9915H842.257L842.945 16.2665H843.169C844.31 14.5302 846 13.662 848.239 13.662C850.35 13.662 852.002 14.4622 853.197 16.0625C854.391 17.6629 854.988 19.8855 854.988 22.7306C854.988 24.6028 854.705 26.2293 854.14 27.61C853.586 28.9907 852.791 30.0419 851.757 30.7636C850.723 31.4853 849.507 31.8462 848.111 31.8462ZM846.671 17.4903C845.467 17.4903 844.587 17.8564 844.033 18.5885C843.478 19.3103 843.19 20.5079 843.169 22.1814V22.6992C843.169 24.5819 843.451 25.9312 844.017 26.7471C844.592 27.5629 845.499 27.9709 846.735 27.9709C848.921 27.9709 850.014 26.2032 850.014 22.6678C850.014 20.942 849.742 19.6502 849.198 18.7925C848.665 17.9243 847.823 17.4903 846.671 17.4903Z" fill="#292929"/>
<path d="M862.904 22.7306C862.904 24.4669 863.192 25.7796 863.768 26.6686C864.354 27.5577 865.303 28.0022 866.615 28.0022C867.915 28.0022 868.848 27.5629 869.413 26.6843C869.989 25.7952 870.277 24.4773 870.277 22.7306C870.277 20.9943 869.989 19.692 869.413 18.8239C868.838 17.9557 867.894 17.5216 866.583 17.5216C865.282 17.5216 864.344 17.9557 863.768 18.8239C863.192 19.6816 862.904 20.9838 862.904 22.7306ZM875.267 22.7306C875.267 25.5861 874.499 27.8192 872.964 29.43C871.429 31.0408 869.291 31.8462 866.551 31.8462C864.834 31.8462 863.32 31.4801 862.009 30.7479C860.697 30.0053 859.69 28.9436 858.986 27.5629C858.282 26.1823 857.93 24.5715 857.93 22.7306C857.93 19.8646 858.693 17.6367 860.217 16.0468C861.742 14.457 863.885 13.662 866.647 13.662C868.363 13.662 869.877 14.0281 871.189 14.7603C872.5 15.4925 873.508 16.5437 874.211 17.9139C874.915 19.2841 875.267 20.8897 875.267 22.7306Z" fill="#292929"/>
<path d="M886.83 28.0336C887.683 28.0336 888.706 27.8506 889.901 27.4845V31.046C888.685 31.5794 887.192 31.8462 885.423 31.8462C883.471 31.8462 882.048 31.365 881.152 30.4027C880.267 29.43 879.825 27.9761 879.825 26.041V17.5844H877.49V15.5605L880.177 13.9601L881.584 10.2574H884.703V13.9915H889.709V17.5844H884.703V26.041C884.703 26.7209 884.895 27.223 885.279 27.5472C885.673 27.8715 886.19 28.0336 886.83 28.0336Z" fill="#292929"/>
<path d="M893.323 9.45724C893.323 7.89875 894.208 7.11951 895.978 7.11951C897.748 7.11951 898.633 7.89875 898.633 9.45724C898.633 10.1999 898.409 10.7804 897.961 11.1988C897.524 11.6067 896.863 11.8107 895.978 11.8107C894.208 11.8107 893.323 11.0262 893.323 9.45724ZM898.409 31.5324H893.531V13.9915H898.409V31.5324Z" fill="#292929"/>
<path d="M908.804 31.5324H903.926V8.59432H917.329V12.5795H908.804V18.4944H916.737V22.4638H908.804V31.5324Z" fill="#292929"/>
<path d="M931.802 31.5324L926.173 13.5365H926.029C926.231 17.1974 926.333 19.6397 926.333 20.8635V31.5324H921.903V8.59432H928.652L934.185 26.1352H934.281L940.151 8.59432H946.9V31.5324H942.278V20.6752C942.278 20.1627 942.283 19.5717 942.294 18.9023C942.315 18.2329 942.39 16.4548 942.518 13.5679H942.374L936.344 31.5324H931.802Z" fill="#292929"/>
<path d="M810.956 19.478C810.956 28.5786 803.579 35.956 794.478 35.956C785.377 35.956 778 28.5786 778 19.478C778 10.3775 785.377 3 794.478 3C803.579 3 810.956 10.3775 810.956 19.478Z" fill="#292929"/>
<path fill-rule="evenodd" clip-rule="evenodd" d="M796.506 12.0636C796.793 12.05 797.059 12.2206 797.171 12.4909L800.466 20.4657C800.469 20.4724 800.472 20.4792 800.474 20.486L801.893 24.2448L803.312 20.486C803.414 20.2158 803.669 20.0376 803.953 20.0376H808.484V21.4367H804.424L802.534 26.4446C802.432 26.7148 802.177 26.893 801.893 26.893C801.609 26.893 801.354 26.7148 801.252 26.4446L799.196 20.9985L796.63 14.7881L794.721 20.9478C794.631 21.2388 794.366 21.4367 794.066 21.4367H791.622L789.334 26.4867C789.21 26.7595 788.93 26.9215 788.636 26.8889C788.343 26.8564 788.103 26.6366 788.04 26.343L785.84 16.0958L784.851 20.8812C784.784 21.2049 784.504 21.4367 784.179 21.4367H780.472V20.0376H783.622L785.155 12.6183C785.222 12.2956 785.501 12.0642 785.824 12.0629C786.148 12.0616 786.429 12.2908 786.498 12.6129L788.944 24.0084L790.559 20.444C790.671 20.1962 790.915 20.0376 791.182 20.0376H793.563L795.883 12.5518C795.97 12.2721 796.218 12.0772 796.506 12.0636Z" fill="white"/>
<path d="M1074.81 21.6513C1074.81 31.5393 1066.79 39.5551 1056.9 39.5551C1047.02 39.5551 1039 31.5393 1039 21.6513C1039 11.7633 1047.02 3.74744 1056.9 3.74744C1066.79 3.74744 1074.81 11.7633 1074.81 21.6513Z" fill="#292929"/>
<path d="M1090 34.1839V4.10549H1102.9C1103.73 4.10549 1104.44 4.40627 1105.04 5.00784C1105.67 5.60941 1105.99 6.33989 1105.99 7.19927V16.4376C1105.99 17.297 1105.67 18.0275 1105.04 18.6291C1104.44 19.2306 1103.73 19.5314 1102.9 19.5314H1094V34.1839H1090ZM1094 15.5353H1100.45C1100.88 15.5353 1101.23 15.3921 1101.52 15.1056C1101.84 14.7905 1101.99 14.4181 1101.99 13.9884V9.60555C1101.99 9.2045 1101.84 8.86075 1101.52 8.57429C1101.23 8.25918 1100.88 8.10162 1100.45 8.10162H1094V15.5353Z" fill="#292929"/>
<path d="M1110.84 34.1839C1109.95 34.1839 1109.2 33.8831 1108.6 33.2816C1108 32.6514 1107.7 31.9066 1107.7 31.0472V15.8361C1107.7 14.9767 1108 14.2462 1108.6 13.6447C1109.2 13.0144 1109.95 12.6993 1110.84 12.6993H1116.68C1117.54 12.6993 1118.27 13.0144 1118.87 13.6447C1119.47 14.2462 1119.77 14.9767 1119.77 15.8361V31.0472C1119.77 31.9066 1119.47 32.6514 1118.87 33.2816C1118.27 33.8831 1117.54 34.1839 1116.68 34.1839H1110.84ZM1113.28 30.1448H1114.19C1114.62 30.1448 1114.99 30.0016 1115.3 29.7151C1115.62 29.4 1115.78 29.0276 1115.78 28.5979V18.2853C1115.78 17.8556 1115.62 17.4976 1115.3 17.2111C1114.99 16.896 1114.62 16.7384 1114.19 16.7384H1113.28C1112.86 16.7384 1112.48 16.896 1112.17 17.2111C1111.88 17.4976 1111.74 17.8556 1111.74 18.2853V28.5979C1111.74 29.0276 1111.88 29.4 1112.17 29.7151C1112.48 30.0016 1112.86 30.1448 1113.28 30.1448Z" fill="#292929"/>
<path d="M1125.98 34.1839C1125.12 34.1839 1124.37 33.8831 1123.74 33.2816C1123.14 32.6514 1122.84 31.9066 1122.84 31.0472V12.6993H1126.88V28.5979C1126.88 29.0276 1127.02 29.4 1127.31 29.7151C1127.62 30.0016 1128 30.1448 1128.43 30.1448H1130.92V12.6993H1134.96V28.5979C1134.96 29.0276 1135.1 29.4 1135.39 29.7151C1135.7 30.0016 1136.07 30.1448 1136.5 30.1448H1138.95V12.6993H1142.99V34.1839H1125.98Z" fill="#292929"/>
<path d="M1149.14 34.1839C1148.25 34.1839 1147.51 33.8831 1146.9 33.2816C1146.3 32.6514 1146 31.9066 1146 31.0472V15.8361C1146 14.9767 1146.3 14.2462 1146.9 13.6447C1147.51 13.0144 1148.25 12.6993 1149.14 12.6993H1154.98C1155.84 12.6993 1156.57 13.0144 1157.17 13.6447C1157.8 14.2462 1158.12 14.9767 1158.12 15.8361V20.5197H1154.08V18.2853C1154.08 17.8556 1153.92 17.4976 1153.61 17.2111C1153.29 16.896 1152.92 16.7384 1152.49 16.7384H1151.59C1151.16 16.7384 1150.79 16.896 1150.47 17.2111C1150.18 17.4976 1150.04 17.8556 1150.04 18.2853V28.5979C1150.04 29.0276 1150.18 29.4 1150.47 29.7151C1150.79 30.0016 1151.16 30.1448 1151.59 30.1448H1152.49C1152.92 30.1448 1153.29 30.0016 1153.61 29.7151C1153.92 29.4 1154.08 29.0276 1154.08 28.5979V26.3635H1158.12V31.0472C1158.12 31.9066 1157.8 32.6514 1157.17 33.2816C1156.57 33.8831 1155.84 34.1839 1154.98 34.1839H1149.14Z" fill="#292929"/>
<path d="M1163.41 34.1839C1162.55 34.1839 1161.8 33.8831 1161.17 33.2816C1160.57 32.68 1160.27 31.9352 1160.27 31.0472V24.5588C1160.27 23.6994 1160.57 22.969 1161.17 22.3674C1161.8 21.7372 1162.55 21.4221 1163.41 21.4221H1166.76C1167.22 21.4221 1167.59 21.2788 1167.87 20.9924C1168.19 20.6773 1168.35 20.3049 1168.35 19.8752V18.2853C1168.35 17.8556 1168.19 17.4976 1167.87 17.2111C1167.59 16.896 1167.22 16.7384 1166.76 16.7384H1162.12L1163.02 12.6993H1169.25C1170.11 12.6993 1170.84 13.0144 1171.44 13.6447C1172.07 14.2462 1172.39 14.9767 1172.39 15.8361V34.1839H1163.41ZM1165.86 30.1448H1168.35V25.4612H1165.86C1165.43 25.4612 1165.05 25.6187 1164.74 25.9338C1164.45 26.2203 1164.31 26.5784 1164.31 27.0081V28.5979C1164.31 29.0276 1164.45 29.4 1164.74 29.7151C1165.05 30.0016 1165.43 30.1448 1165.86 30.1448Z" fill="#292929"/>
<path d="M1178.09 34.1839C1177.23 34.1839 1176.5 33.8831 1175.9 33.2816C1175.3 32.6514 1175 31.9066 1175 31.0472V27.4807H1178.99V28.5979C1178.99 29.0276 1179.15 29.4 1179.47 29.7151C1179.78 30.0016 1180.15 30.1448 1180.58 30.1448H1181.49C1181.92 30.1448 1182.27 30.0016 1182.56 29.7151C1182.88 29.4 1183.03 29.0276 1183.03 28.5979V27.0081C1183.03 26.5784 1182.88 26.2203 1182.56 25.9338C1182.27 25.6187 1181.92 25.4612 1181.49 25.4612H1178.09C1177.23 25.4612 1176.5 25.1604 1175.9 24.5588C1175.3 23.9286 1175 23.1838 1175 22.3244V15.8361C1175 14.9767 1175.3 14.2462 1175.9 13.6447C1176.5 13.0144 1177.23 12.6993 1178.09 12.6993H1183.98C1184.84 12.6993 1185.57 13.0144 1186.17 13.6447C1186.77 14.2462 1187.07 14.9767 1187.07 15.8361V19.4025H1183.03V18.2853C1183.03 17.8556 1182.88 17.4976 1182.56 17.2111C1182.27 16.896 1181.92 16.7384 1181.49 16.7384H1180.58C1180.15 16.7384 1179.78 16.896 1179.47 17.2111C1179.15 17.4976 1178.99 17.8556 1178.99 18.2853V19.8752C1178.99 20.3049 1179.15 20.6773 1179.47 20.9924C1179.78 21.2788 1180.15 21.4221 1180.58 21.4221H1183.98C1184.84 21.4221 1185.57 21.7372 1186.17 22.3674C1186.77 22.969 1187.07 23.6994 1187.07 24.5588V31.2191C1187.04 32.0211 1186.73 32.723 1186.13 33.3245C1185.53 33.8975 1184.81 34.1839 1183.98 34.1839H1178.09Z" fill="#292929"/>
<path d="M1189.68 34.1839V2.90235L1193.72 2V12.6993H1198.84L1197.89 16.7384H1193.72V34.1839H1189.68Z" fill="#292929"/>
<path d="M35.8077 21.6513C35.8077 31.5393 27.7918 39.5551 17.9038 39.5551C8.01582 39.5551 0 31.5393 0 21.6513C0 11.7633 8.01582 3.74744 17.9038 3.74744C27.7918 3.74744 35.8077 11.7633 35.8077 21.6513Z" fill="#292929"/>
<path d="M51.0049 34.1839V4.10549H63.8956C64.7264 4.10549 65.4425 4.40627 66.0441 5.00784C66.6743 5.60941 66.9894 6.33989 66.9894 7.19927V16.4376C66.9894 17.297 66.6743 18.0275 66.0441 18.6291C65.4425 19.2306 64.7264 19.5314 63.8956 19.5314H55.001V34.1839H51.0049ZM55.001 15.5353H61.4464C61.8761 15.5353 62.2342 15.3921 62.5206 15.1056C62.8357 14.7905 62.9933 14.4181 62.9933 13.9884V9.60555C62.9933 9.2045 62.8357 8.86075 62.5206 8.57429C62.2342 8.25918 61.8761 8.10162 61.4464 8.10162H55.001V15.5353Z" fill="#292929"/>
<path d="M71.8355 34.1839C70.9475 34.1839 70.2027 33.8831 69.6011 33.2816C68.9996 32.6514 68.6988 31.9066 68.6988 31.0472V15.8361C68.6988 14.9767 68.9996 14.2462 69.6011 13.6447C70.2027 13.0144 70.9475 12.6993 71.8355 12.6993H77.6793C78.5387 12.6993 79.2692 13.0144 79.8708 13.6447C80.4723 14.2462 80.7731 14.9767 80.7731 15.8361V31.0472C80.7731 31.9066 80.4723 32.6514 79.8708 33.2816C79.2692 33.8831 78.5387 34.1839 77.6793 34.1839H71.8355ZM74.2848 30.1448H75.1871C75.6168 30.1448 75.9892 30.0016 76.3043 29.7151C76.6194 29.4 76.777 29.0276 76.777 28.5979V18.2853C76.777 17.8556 76.6194 17.4976 76.3043 17.2111C75.9892 16.896 75.6168 16.7384 75.1871 16.7384H74.2848C73.8551 16.7384 73.4827 16.896 73.1676 17.2111C72.8811 17.4976 72.7379 17.8556 72.7379 18.2853V28.5979C72.7379 29.0276 72.8811 29.4 73.1676 29.7151C73.4827 30.0016 73.8551 30.1448 74.2848 30.1448Z" fill="#292929"/>
<path d="M86.9758 34.1839C86.1164 34.1839 85.3716 33.8831 84.7414 33.2816C84.1398 32.6514 83.8391 31.9066 83.8391 31.0472V12.6993H87.8782V28.5979C87.8782 29.0276 88.0214 29.4 88.3078 29.7151C88.6229 30.0016 88.9954 30.1448 89.425 30.1448H91.9173V12.6993H95.9564V28.5979C95.9564 29.0276 96.0996 29.4 96.3861 29.7151C96.7012 30.0016 97.0736 30.1448 97.5033 30.1448H99.9525V12.6993H103.992V34.1839H86.9758Z" fill="#292929"/>
<path d="M110.139 34.1839C109.251 34.1839 108.506 33.8831 107.904 33.2816C107.303 32.6514 107.002 31.9066 107.002 31.0472V15.8361C107.002 14.9767 107.303 14.2462 107.904 13.6447C108.506 13.0144 109.251 12.6993 110.139 12.6993H115.983C116.842 12.6993 117.573 13.0144 118.174 13.6447C118.804 14.2462 119.119 14.9767 119.119 15.8361V20.5197H115.08V18.2853C115.08 17.8556 114.923 17.4976 114.608 17.2111C114.293 16.896 113.92 16.7384 113.49 16.7384H112.588C112.158 16.7384 111.786 16.896 111.471 17.2111C111.184 17.4976 111.041 17.8556 111.041 18.2853V28.5979C111.041 29.0276 111.184 29.4 111.471 29.7151C111.786 30.0016 112.158 30.1448 112.588 30.1448H113.49C113.92 30.1448 114.293 30.0016 114.608 29.7151C114.923 29.4 115.08 29.0276 115.08 28.5979V26.3635H119.119V31.0472C119.119 31.9066 118.804 32.6514 118.174 33.2816C117.573 33.8831 116.842 34.1839 115.983 34.1839H110.139Z" fill="#292929"/>
<path d="M124.406 34.1839C123.547 34.1839 122.802 33.8831 122.172 33.2816C121.57 32.68 121.269 31.9352 121.269 31.0472V24.5588C121.269 23.6994 121.57 22.969 122.172 22.3674C122.802 21.7372 123.547 21.4221 124.406 21.4221H127.758C128.216 21.4221 128.588 21.2788 128.875 20.9924C129.19 20.6773 129.347 20.3049 129.347 19.8752V18.2853C129.347 17.8556 129.19 17.4976 128.875 17.2111C128.588 16.896 128.216 16.7384 127.758 16.7384H123.117L124.019 12.6993H130.25C131.109 12.6993 131.84 13.0144 132.441 13.6447C133.071 14.2462 133.387 14.9767 133.387 15.8361V34.1839H124.406ZM126.855 30.1448H129.347V25.4612H126.855C126.426 25.4612 126.053 25.6187 125.738 25.9338C125.452 26.2203 125.308 26.5784 125.308 27.0081V28.5979C125.308 29.0276 125.452 29.4 125.738 29.7151C126.053 30.0016 126.426 30.1448 126.855 30.1448Z" fill="#292929"/>
<path d="M139.092 34.1839C138.232 34.1839 137.502 33.8831 136.9 33.2816C136.299 32.6514 135.998 31.9066 135.998 31.0472V27.4807H139.994V28.5979C139.994 29.0276 140.152 29.4 140.467 29.7151C140.782 30.0016 141.154 30.1448 141.584 30.1448H142.486C142.916 30.1448 143.274 30.0016 143.561 29.7151C143.876 29.4 144.033 29.0276 144.033 28.5979V27.0081C144.033 26.5784 143.876 26.2203 143.561 25.9338C143.274 25.6187 142.916 25.4612 142.486 25.4612H139.092C138.232 25.4612 137.502 25.1604 136.9 24.5588C136.299 23.9286 135.998 23.1838 135.998 22.3244V15.8361C135.998 14.9767 136.299 14.2462 136.9 13.6447C137.502 13.0144 138.232 12.6993 139.092 12.6993H144.979C145.838 12.6993 146.568 13.0144 147.17 13.6447C147.771 14.2462 148.072 14.9767 148.072 15.8361V19.4025H144.033V18.2853C144.033 17.8556 143.876 17.4976 143.561 17.2111C143.274 16.896 142.916 16.7384 142.486 16.7384H141.584C141.154 16.7384 140.782 16.896 140.467 17.2111C140.152 17.4976 139.994 17.8556 139.994 18.2853V19.8752C139.994 20.3049 140.152 20.6773 140.467 20.9924C140.782 21.2788 141.154 21.4221 141.584 21.4221H144.979C145.838 21.4221 146.568 21.7372 147.17 22.3674C147.771 22.969 148.072 23.6994 148.072 24.5588V31.2191C148.044 32.0211 147.729 32.723 147.127 33.3245C146.525 33.8975 145.809 34.1839 144.979 34.1839H139.092Z" fill="#292929"/>
<path d="M150.685 34.1839V2.90235L154.724 2V12.6993H159.837L158.892 16.7384H154.724V34.1839H150.685Z" fill="#292929"/>
</svg>
